<svg width="20" height="20" viewBox="0 0 20 20" fill="none" xmlns="http://www.w3.org/2000/svg">
<path d="M0 15.8339V20H4.1661L16.4533 7.71278L12.2872 3.54668L0 15.8339ZM19.6751 4.491C19.7781 4.38822 19.8598 4.26613 19.9156 4.13174C19.9713 3.99734 20 3.85327 20 3.70777C20 3.56227 19.9713 3.4182 19.9156 3.2838C19.8598 3.1494 19.7781 3.02732 19.6751 2.92454L17.0755 0.324894C16.9727 0.221904 16.8506 0.140195 16.7162 0.0844457C16.5818 0.0286961 16.4377 0 16.2922 0C16.1467 0 16.0027 0.0286961 15.8683 0.0844457C15.7339 0.140195 15.6118 0.221904 15.509 0.324894L13.4759 2.35795L17.642 6.52405L19.6751 4.491Z" fill="#5D2F1A"/>
</svg>
