<svg width="25" height="25" viewBox="0 0 25 25" fill="none" xmlns="http://www.w3.org/2000/svg">
<path d="M22.2222 2.77778V22.2222H2.77778V2.77778H22.2222ZM23.75 0H1.25C0.555556 0 0 0.555556 0 1.25V23.75C0 24.3056 0.555556 25 1.25 25H23.75C24.3056 25 25 24.3056 25 23.75V1.25C25 0.555556 24.3056 0 23.75 0ZM11.1111 5.55556H19.4444V8.33333H11.1111V5.55556ZM11.1111 11.1111H19.4444V13.8889H11.1111V11.1111ZM11.1111 16.6667H19.4444V19.4444H11.1111V16.6667ZM5.55556 5.55556H8.33333V8.33333H5.55556V5.55556ZM5.55556 11.1111H8.33333V13.8889H5.55556V11.1111ZM5.55556 16.6667H8.33333V19.4444H5.55556V16.6667Z" fill="#5D2F1A"/>
</svg>
