<svg width="25" height="28" viewBox="0 0 25 28" fill="none" xmlns="http://www.w3.org/2000/svg">
<path d="M22.2222 2.8H20.8333V0H18.0556V2.8H6.94444V0H4.16667V2.8H2.77778C1.23611 2.8 0.0138889 4.06 0.0138889 5.6L0 25.2C0 25.9426 0.292658 26.6548 0.813592 27.1799C1.33453 27.705 2.04107 28 2.77778 28H22.2222C23.75 28 25 26.74 25 25.2V5.6C25 4.06 23.75 2.8 22.2222 2.8ZM22.2222 25.2H2.77778V11.2H22.2222V25.2ZM8.33333 16.8H5.55556V14H8.33333V16.8ZM13.8889 16.8H11.1111V14H13.8889V16.8ZM19.4444 16.8H16.6667V14H19.4444V16.8ZM8.33333 22.4H5.55556V19.6H8.33333V22.4ZM13.8889 22.4H11.1111V19.6H13.8889V22.4ZM19.4444 22.4H16.6667V19.6H19.4444V22.4Z" fill="#5D2F1A"/>
</svg>
