<svg width="249" height="118" viewBox="0 0 249 118" fill="none" xmlns="http://www.w3.org/2000/svg">
<path d="M137.624 46.6438L136.128 61.8631C136.069 62.4553 135.793 63.006 135.351 63.4118C134.908 63.8175 134.331 64.0506 133.727 64.0672L123.217 64.3571C122.613 64.3732 122.023 64.1717 121.559 63.7904C121.095 63.4092 120.788 62.8743 120.696 62.2863L118.339 47.176C115.885 45.8023 113.78 43.8977 112.183 41.6061C110.587 39.3145 109.54 36.6958 109.123 33.9478C108.705 31.1997 108.927 28.3942 109.773 25.7431C110.618 23.092 112.065 20.6646 114.003 18.6443C119.977 12.4272 130.363 6.96026 137.333 5.0406C135.955 17.1436 140.811 18.5264 143.087 22.1683C148.407 30.6789 146.114 41.2721 137.624 46.6438ZM128.416 49.5444C128.19 49.5541 127.964 49.5608 127.737 49.5648L123.752 49.6758L125.269 59.4125L131.397 59.2445L132.361 49.4397L128.416 49.5444Z" fill="#D7C0A4"/>
<path d="M90.6855 58.8048C95.2298 67.8282 92.0415 79.9167 83.1211 88.8585L103.459 118H87.0244L72.1006 96.5352C60.6213 101.803 48.1772 100.604 41.2881 93.214L90.6855 58.8048ZM31.7412 26.8468C47.4513 15.9035 64.8224 10.5944 80.0771 10.9962L88.1475 45.8302L29.9971 86.337L0.120117 66.6934C5.03049 52.2449 16.0311 37.7901 31.7412 26.8468Z" fill="#D7C0A4"/>
<path d="M203.211 17.1419C204.764 17.1289 206.305 17.4174 207.745 17.9905C209.185 18.5637 210.496 19.4107 211.604 20.4827L245.334 53.1224C246.442 54.194 247.325 55.4699 247.932 56.8773C248.538 58.2846 248.857 59.7958 248.87 61.3245C248.883 62.8533 248.591 64.3701 248.009 65.7874C247.426 67.2047 246.566 68.4953 245.477 69.5853L225.903 89.1751C221.112 93.9712 214.779 96.9854 207.984 97.7044C201.189 98.4234 194.351 96.8024 188.633 93.1185L183.687 89.9358L173.791 99.8431C174.865 102.47 175.137 105.349 174.573 108.126C174.009 110.904 172.633 113.459 170.615 115.478L168.095 118H132.858C132.857 117.95 132.856 117.899 132.855 117.848C132.839 115.937 133.206 114.042 133.934 112.271C134.661 110.499 135.736 108.886 137.098 107.524L149.531 95.0814C151.547 93.0622 154.118 91.6662 156.929 91.0638C159.739 90.4613 162.668 90.6785 165.354 91.6898L175.261 81.7718L171.932 76.9573C168.094 71.3929 166.334 64.6922 166.95 57.9944C167.566 51.2966 170.52 45.0152 175.31 40.219L194.877 20.6233C195.966 19.5329 197.262 18.6639 198.692 18.0667C200.122 17.4695 201.658 17.1549 203.211 17.1419ZM218.532 53.7034C217.092 53.6287 215.673 54.0747 214.544 54.9573L213.993 55.4446L201.56 67.8929L201.073 68.4437C200.201 69.5707 199.775 70.9726 199.878 72.386C199.98 73.7995 200.604 75.1279 201.631 76.1214C202.658 77.1146 204.018 77.7056 205.455 77.7825C206.893 77.8593 208.31 77.4163 209.439 76.5384L209.99 76.0511L222.424 63.6038L222.916 63.0521C223.793 61.9249 224.221 60.5208 224.119 59.1048C224.018 57.689 223.394 56.3583 222.365 55.3636C221.336 54.3687 219.973 53.7782 218.532 53.7034ZM206.075 41.4671C204.572 41.3429 203.077 41.7893 201.897 42.7142L201.346 43.2015L188.912 55.6546C187.813 56.7551 187.204 58.2405 187.217 59.7835C187.23 61.3264 187.866 62.8011 188.983 63.8831C190.01 64.8765 191.37 65.4673 192.808 65.5442C194.245 65.6211 195.662 65.1791 196.792 64.3011L197.344 63.8138L209.777 51.3655C210.84 50.3118 211.453 48.8984 211.491 47.4144C211.53 45.9302 210.99 44.4876 209.983 43.3821C208.977 42.2766 207.578 41.5913 206.075 41.4671Z" fill="#D7C0A4"/>
<path d="M126.27 61.0898C153.194 61.0898 175.034 86.5477 175.141 118H77.3994C77.5061 86.5479 99.3448 61.0901 126.27 61.0898Z" fill="#D7C0A4"/>
<path d="M153.149 96.5213C153.149 99.8952 150.414 102.63 147.04 102.63C143.666 102.63 140.931 99.8952 140.931 96.5213C140.931 93.1474 143.666 90.4124 147.04 90.4124C150.414 90.4124 153.149 93.1474 153.149 96.5213Z" fill="#F9F5EF"/>
<path d="M111.609 96.5213C111.609 99.8952 108.873 102.63 105.5 102.63C102.126 102.63 99.3906 99.8952 99.3906 96.5213C99.3906 93.1474 102.126 90.4124 105.5 90.4124C108.873 90.4124 111.609 93.1474 111.609 96.5213Z" fill="#F9F5EF"/>
</svg>
