<svg width="279" height="281" viewBox="0 0 279 281" fill="none" xmlns="http://www.w3.org/2000/svg">
<path d="M45.9929 80.7273V69.1023L75.1406 23.1818H85.1634V39.2727H79.2315L60.8565 68.3523V68.8977H102.277V80.7273H45.9929ZM79.5043 93V77.1818L79.777 72.0341V23.1818H93.6179V93H79.5043ZM139.487 94.5341C133.624 94.5114 128.578 93.0682 124.351 90.2045C120.146 87.3409 116.908 83.1932 114.635 77.7614C112.385 72.3295 111.271 65.7955 111.294 58.1591C111.294 50.5455 112.419 44.0568 114.669 38.6932C116.942 33.3295 120.18 29.25 124.385 26.4545C128.612 23.6364 133.646 22.2273 139.487 22.2273C145.328 22.2273 150.351 23.6364 154.555 26.4545C158.783 29.2727 162.033 33.3636 164.305 38.7273C166.578 44.0682 167.703 50.5455 167.68 58.1591C167.68 65.8182 166.544 72.3636 164.271 77.7955C162.021 83.2273 158.794 87.375 154.589 90.2386C150.385 93.1023 145.351 94.5341 139.487 94.5341ZM139.487 82.2955C143.487 82.2955 146.68 80.2841 149.067 76.2614C151.453 72.2386 152.635 66.2045 152.612 58.1591C152.612 52.8636 152.067 48.4545 150.976 44.9318C149.908 41.4091 148.385 38.7614 146.408 36.9886C144.453 35.2159 142.146 34.3295 139.487 34.3295C135.51 34.3295 132.328 36.3182 129.942 40.2955C127.555 44.2727 126.351 50.2273 126.328 58.1591C126.328 63.5227 126.862 68 127.93 71.5909C129.021 75.1591 130.555 77.8409 132.533 79.6364C134.51 81.4091 136.828 82.2955 139.487 82.2955ZM177.149 80.7273V69.1023L206.297 23.1818H216.32V39.2727H210.388L192.013 68.3523V68.8977H233.433V80.7273H177.149ZM210.661 93V77.1818L210.933 72.0341V23.1818H224.774V93H210.661Z" fill="#D7C0A4"/>
<path d="M154.339 209.644L152.866 224.863C152.808 225.455 152.536 226.006 152.101 226.412C151.666 226.818 151.097 227.051 150.503 227.067L140.159 227.357C139.564 227.373 138.984 227.172 138.527 226.79C138.07 226.409 137.768 225.874 137.677 225.286L135.357 210.176C132.942 208.802 130.87 206.898 129.299 204.606C127.727 202.315 126.697 199.696 126.286 196.948C125.875 194.2 126.094 191.394 126.926 188.743C127.758 186.092 129.182 183.665 131.089 181.644C136.97 175.427 147.192 169.96 154.053 168.041C152.696 180.144 157.476 181.526 159.715 185.168C164.951 193.679 162.695 204.272 154.339 209.644ZM145.275 212.544C145.053 212.554 144.831 212.561 144.607 212.565L140.685 212.676L142.178 222.413L148.209 222.245L149.158 212.44L145.275 212.544Z" fill="#D7C0A4"/>
<path d="M108.139 221.995C112.611 230.877 109.474 242.775 100.694 251.576L121.229 281H105.052L89.8467 259.131C78.5484 264.316 66.3011 263.136 59.5205 255.863L108.139 221.995ZM50.123 190.54C65.5858 179.769 82.6836 174.544 97.6982 174.94L105.642 209.225L48.4062 249.093L19 229.759C23.833 215.538 34.6604 201.311 50.123 190.54Z" fill="#D7C0A4"/>
<path d="M218.893 180.143C220.421 180.13 221.937 180.418 223.355 180.991C224.772 181.564 226.063 182.41 227.153 183.482L260.353 216.122C261.443 217.194 262.312 218.47 262.909 219.877C263.507 221.284 263.82 222.796 263.833 224.325C263.846 225.854 263.558 227.37 262.985 228.787C262.411 230.204 261.564 231.495 260.492 232.585L241.228 252.175C236.511 256.971 230.279 259.985 223.591 260.704C216.903 261.423 210.172 259.803 204.544 256.119L199.676 252.936L189.936 262.843C190.993 265.47 191.261 268.35 190.705 271.127C190.15 273.904 188.796 276.459 186.81 278.477L184.329 281H149.649C149.648 280.949 149.646 280.899 149.646 280.849C149.629 278.938 149.99 277.042 150.706 275.27C151.423 273.499 152.481 271.886 153.82 270.523L166.058 258.082C168.042 256.063 170.573 254.666 173.339 254.063C176.105 253.461 178.988 253.679 181.632 254.69L191.383 244.771L188.106 239.958C184.329 234.393 182.596 227.692 183.202 220.994C183.808 214.296 186.716 208.015 191.431 203.219L210.691 183.623C211.762 182.533 213.038 181.664 214.445 181.066C215.853 180.469 217.364 180.156 218.893 180.143ZM233.973 216.703C232.555 216.628 231.16 217.074 230.048 217.957L229.505 218.445L217.267 230.893L216.788 231.443C215.929 232.57 215.512 233.972 215.612 235.386C215.713 236.799 216.327 238.128 217.337 239.121C218.348 240.114 219.686 240.705 221.101 240.782C222.516 240.859 223.91 240.417 225.023 239.539L225.566 239.051L237.803 226.603L238.287 226.053C239.15 224.926 239.572 223.521 239.472 222.105C239.372 220.689 238.758 219.358 237.745 218.363C236.733 217.368 235.39 216.778 233.973 216.703ZM221.712 204.467C220.233 204.343 218.761 204.789 217.6 205.714L217.057 206.201L204.819 218.655C203.738 219.756 203.137 221.241 203.151 222.784C203.164 224.327 203.79 225.802 204.89 226.884C205.9 227.877 207.239 228.467 208.653 228.544C210.068 228.621 211.463 228.179 212.575 227.301L213.118 226.813L225.356 214.366C226.402 213.312 227.005 211.898 227.043 210.414C227.081 208.93 226.55 207.487 225.559 206.382C224.568 205.276 223.191 204.591 221.712 204.467Z" fill="#D7C0A4"/>
<path d="M146.27 224.09C173.194 224.09 195.034 249.548 195.141 281H97.3994C97.5061 249.548 119.345 224.09 146.27 224.09Z" fill="#D7C0A4"/>
<path d="M173.149 259.521C173.149 262.895 170.414 265.63 167.04 265.63C163.666 265.63 160.931 262.895 160.931 259.521C160.931 256.147 163.666 253.412 167.04 253.412C170.414 253.412 173.149 256.147 173.149 259.521Z" fill="#F9F5EF"/>
<path d="M131.609 259.521C131.609 262.895 128.873 265.63 125.5 265.63C122.126 265.63 119.391 262.895 119.391 259.521C119.391 256.147 122.126 253.412 125.5 253.412C128.873 253.412 131.609 256.147 131.609 259.521Z" fill="#F9F5EF"/>
<path d="M48.8374 130V112.545H55.7237C57.0476 112.545 58.1754 112.798 59.1072 113.304C60.0391 113.804 60.7493 114.5 61.2379 115.392C61.7322 116.278 61.9794 117.301 61.9794 118.46C61.9794 119.619 61.7294 120.642 61.2294 121.528C60.7294 122.415 60.005 123.105 59.0561 123.599C58.1129 124.094 56.9709 124.341 55.63 124.341H51.2408V121.384H55.0334C55.7436 121.384 56.3288 121.261 56.7891 121.017C57.255 120.767 57.6016 120.423 57.8288 119.986C58.0618 119.543 58.1783 119.034 58.1783 118.46C58.1783 117.881 58.0618 117.375 57.8288 116.943C57.6016 116.506 57.255 116.168 56.7891 115.929C56.3232 115.685 55.7322 115.562 55.0163 115.562H52.5277V130H48.8374ZM67.6896 130.247C66.8544 130.247 66.1101 130.102 65.4567 129.812C64.8033 129.517 64.2862 129.082 63.9055 128.509C63.5305 127.929 63.343 127.207 63.343 126.344C63.343 125.616 63.4766 125.006 63.7436 124.511C64.0107 124.017 64.3743 123.619 64.8345 123.318C65.2947 123.017 65.8175 122.79 66.4027 122.636C66.9936 122.483 67.6129 122.375 68.2607 122.312C69.022 122.233 69.6357 122.159 70.1016 122.091C70.5675 122.017 70.9055 121.909 71.1158 121.767C71.326 121.625 71.4311 121.415 71.4311 121.136V121.085C71.4311 120.545 71.2607 120.128 70.9197 119.832C70.5845 119.537 70.1072 119.389 69.4879 119.389C68.8345 119.389 68.3146 119.534 67.9283 119.824C67.5419 120.108 67.2862 120.466 67.1612 120.898L63.8033 120.625C63.9737 119.83 64.3089 119.142 64.8089 118.562C65.3089 117.977 65.9538 117.528 66.7436 117.216C67.5391 116.898 68.4595 116.739 69.505 116.739C70.2322 116.739 70.9283 116.824 71.593 116.994C72.2635 117.165 72.8572 117.429 73.3743 117.787C73.897 118.145 74.3089 118.605 74.6101 119.168C74.9112 119.724 75.0618 120.392 75.0618 121.17V130H71.6186V128.185H71.5163C71.3061 128.594 71.0249 128.955 70.6726 129.267C70.3203 129.574 69.897 129.815 69.4027 129.991C68.9084 130.162 68.3374 130.247 67.6896 130.247ZM68.7294 127.741C69.2635 127.741 69.7351 127.636 70.1442 127.426C70.5533 127.21 70.8743 126.92 71.1072 126.557C71.3402 126.193 71.4567 125.781 71.4567 125.321V123.932C71.343 124.006 71.1868 124.074 70.9879 124.136C70.7947 124.193 70.576 124.247 70.3317 124.298C70.0874 124.344 69.843 124.386 69.5987 124.426C69.3544 124.46 69.1328 124.491 68.9339 124.52C68.5078 124.582 68.1357 124.682 67.8175 124.818C67.4993 124.955 67.2521 125.139 67.076 125.372C66.8999 125.599 66.8118 125.884 66.8118 126.224C66.8118 126.719 66.9908 127.097 67.3487 127.358C67.7124 127.614 68.1726 127.741 68.7294 127.741ZM83.7763 135.182C82.6001 135.182 81.5916 135.02 80.7507 134.696C79.9155 134.378 79.2507 133.943 78.7564 133.392C78.2621 132.841 77.9411 132.222 77.7933 131.534L81.1513 131.082C81.2536 131.344 81.4155 131.588 81.6371 131.815C81.8587 132.043 82.1513 132.224 82.5149 132.361C82.8842 132.503 83.3331 132.574 83.8615 132.574C84.6513 132.574 85.3018 132.381 85.8132 131.994C86.3303 131.614 86.5888 130.974 86.5888 130.077V127.682H86.4354C86.2763 128.045 86.0376 128.389 85.7195 128.713C85.4013 129.037 84.9922 129.301 84.4922 129.506C83.9922 129.71 83.3956 129.812 82.7024 129.812C81.7195 129.812 80.8246 129.585 80.0178 129.131C79.2166 128.67 78.5774 127.969 78.1001 127.026C77.6286 126.077 77.3928 124.878 77.3928 123.429C77.3928 121.946 77.6342 120.707 78.1172 119.713C78.6001 118.719 79.2422 117.974 80.0433 117.48C80.8501 116.986 81.7337 116.739 82.6939 116.739C83.4268 116.739 84.0405 116.864 84.5348 117.114C85.0291 117.358 85.4268 117.665 85.728 118.034C86.0348 118.398 86.2706 118.756 86.4354 119.108H86.5717V116.909H90.1768V130.128C90.1768 131.241 89.9041 132.173 89.3587 132.923C88.8132 133.673 88.0575 134.236 87.0916 134.611C86.1314 134.991 85.0263 135.182 83.7763 135.182ZM83.853 127.085C84.4382 127.085 84.9325 126.94 85.3359 126.651C85.745 126.355 86.0575 125.935 86.2734 125.389C86.495 124.838 86.6058 124.179 86.6058 123.412C86.6058 122.645 86.4979 121.98 86.282 121.418C86.0661 120.849 85.7536 120.409 85.3445 120.097C84.9354 119.784 84.4382 119.628 83.853 119.628C83.2564 119.628 82.7536 119.79 82.3445 120.114C81.9354 120.432 81.6257 120.875 81.4155 121.443C81.2053 122.011 81.1001 122.668 81.1001 123.412C81.1001 124.168 81.2053 124.821 81.4155 125.372C81.6314 125.918 81.9411 126.341 82.3445 126.642C82.7536 126.937 83.2564 127.085 83.853 127.085ZM99.032 130.256C97.6854 130.256 96.5263 129.983 95.5547 129.438C94.5888 128.886 93.8445 128.108 93.3217 127.102C92.799 126.091 92.5376 124.895 92.5376 123.514C92.5376 122.168 92.799 120.986 93.3217 119.969C93.8445 118.952 94.5803 118.159 95.5291 117.591C96.4837 117.023 97.603 116.739 98.8871 116.739C99.7507 116.739 100.555 116.878 101.299 117.156C102.049 117.429 102.702 117.841 103.259 118.392C103.822 118.943 104.259 119.636 104.572 120.472C104.884 121.301 105.04 122.273 105.04 123.386V124.384H93.9865V122.134H101.623C101.623 121.611 101.509 121.148 101.282 120.744C101.055 120.341 100.739 120.026 100.336 119.798C99.9382 119.565 99.4751 119.449 98.9467 119.449C98.3956 119.449 97.907 119.577 97.4808 119.832C97.0604 120.082 96.7308 120.42 96.4922 120.847C96.2536 121.267 96.1314 121.736 96.1257 122.253V124.392C96.1257 125.04 96.245 125.599 96.4837 126.071C96.728 126.543 97.0717 126.906 97.5149 127.162C97.9581 127.418 98.4837 127.545 99.0916 127.545C99.495 127.545 99.8643 127.489 100.2 127.375C100.535 127.261 100.822 127.091 101.06 126.864C101.299 126.636 101.481 126.358 101.606 126.028L104.964 126.25C104.793 127.057 104.444 127.761 103.915 128.364C103.393 128.96 102.717 129.426 101.887 129.761C101.063 130.091 100.112 130.256 99.032 130.256ZM127.632 112.545V130H124.445L116.851 119.014H116.723V130H113.033V112.545H116.271L123.805 123.523H123.959V112.545H127.632ZM136.528 130.256C135.204 130.256 134.059 129.974 133.093 129.412C132.133 128.844 131.391 128.054 130.869 127.043C130.346 126.026 130.085 124.847 130.085 123.506C130.085 122.153 130.346 120.972 130.869 119.96C131.391 118.943 132.133 118.153 133.093 117.591C134.059 117.023 135.204 116.739 136.528 116.739C137.852 116.739 138.994 117.023 139.954 117.591C140.92 118.153 141.664 118.943 142.187 119.96C142.71 120.972 142.971 122.153 142.971 123.506C142.971 124.847 142.71 126.026 142.187 127.043C141.664 128.054 140.92 128.844 139.954 129.412C138.994 129.974 137.852 130.256 136.528 130.256ZM136.545 127.443C137.147 127.443 137.65 127.273 138.053 126.932C138.457 126.585 138.761 126.114 138.965 125.517C139.175 124.92 139.281 124.241 139.281 123.48C139.281 122.719 139.175 122.04 138.965 121.443C138.761 120.847 138.457 120.375 138.053 120.028C137.65 119.682 137.147 119.509 136.545 119.509C135.937 119.509 135.425 119.682 135.011 120.028C134.602 120.375 134.292 120.847 134.082 121.443C133.877 122.04 133.775 122.719 133.775 123.48C133.775 124.241 133.877 124.92 134.082 125.517C134.292 126.114 134.602 126.585 135.011 126.932C135.425 127.273 135.937 127.443 136.545 127.443ZM152.295 116.909V119.636H144.411V116.909H152.295ZM146.201 113.773H149.832V125.977C149.832 126.312 149.883 126.574 149.985 126.761C150.087 126.943 150.229 127.071 150.411 127.145C150.599 127.219 150.815 127.256 151.059 127.256C151.229 127.256 151.4 127.241 151.57 127.213C151.741 127.179 151.871 127.153 151.962 127.136L152.533 129.838C152.352 129.895 152.096 129.96 151.766 130.034C151.437 130.114 151.036 130.162 150.565 130.179C149.69 130.213 148.923 130.097 148.263 129.83C147.61 129.562 147.102 129.148 146.738 128.585C146.374 128.023 146.195 127.312 146.201 126.455V113.773ZM160.283 130V112.545H171.839V115.588H163.973V119.747H171.072V122.79H163.973V130H160.283ZM179.207 130.256C177.884 130.256 176.739 129.974 175.773 129.412C174.813 128.844 174.071 128.054 173.548 127.043C173.026 126.026 172.764 124.847 172.764 123.506C172.764 122.153 173.026 120.972 173.548 119.96C174.071 118.943 174.813 118.153 175.773 117.591C176.739 117.023 177.884 116.739 179.207 116.739C180.531 116.739 181.673 117.023 182.634 117.591C183.599 118.153 184.344 118.943 184.866 119.96C185.389 120.972 185.651 122.153 185.651 123.506C185.651 124.847 185.389 126.026 184.866 127.043C184.344 128.054 183.599 128.844 182.634 129.412C181.673 129.974 180.531 130.256 179.207 130.256ZM179.224 127.443C179.827 127.443 180.33 127.273 180.733 126.932C181.136 126.585 181.44 126.114 181.645 125.517C181.855 124.92 181.96 124.241 181.96 123.48C181.96 122.719 181.855 122.04 181.645 121.443C181.44 120.847 181.136 120.375 180.733 120.028C180.33 119.682 179.827 119.509 179.224 119.509C178.616 119.509 178.105 119.682 177.69 120.028C177.281 120.375 176.972 120.847 176.761 121.443C176.557 122.04 176.455 122.719 176.455 123.48C176.455 124.241 176.557 124.92 176.761 125.517C176.972 126.114 177.281 126.585 177.69 126.932C178.105 127.273 178.616 127.443 179.224 127.443ZM196.406 124.426V116.909H200.037V130H196.551V127.622H196.415C196.119 128.389 195.628 129.006 194.94 129.472C194.259 129.937 193.426 130.17 192.443 130.17C191.568 130.17 190.798 129.972 190.134 129.574C189.469 129.176 188.949 128.611 188.574 127.878C188.205 127.145 188.017 126.267 188.011 125.244V116.909H191.642V124.597C191.648 125.369 191.855 125.98 192.264 126.429C192.673 126.878 193.222 127.102 193.909 127.102C194.347 127.102 194.756 127.003 195.136 126.804C195.517 126.599 195.824 126.298 196.057 125.901C196.295 125.503 196.412 125.011 196.406 124.426ZM206.572 122.432V130H202.941V116.909H206.401V119.219H206.555C206.844 118.457 207.33 117.855 208.012 117.412C208.694 116.963 209.521 116.739 210.492 116.739C211.401 116.739 212.194 116.938 212.87 117.335C213.546 117.733 214.072 118.301 214.447 119.04C214.822 119.773 215.009 120.648 215.009 121.665V130H211.379V122.312C211.384 121.511 211.18 120.886 210.765 120.438C210.35 119.983 209.779 119.756 209.052 119.756C208.563 119.756 208.131 119.861 207.756 120.071C207.387 120.281 207.097 120.588 206.887 120.991C206.683 121.389 206.577 121.869 206.572 122.432ZM222.695 130.213C221.7 130.213 220.8 129.957 219.993 129.446C219.192 128.929 218.555 128.17 218.084 127.17C217.618 126.165 217.385 124.932 217.385 123.472C217.385 121.972 217.626 120.724 218.109 119.73C218.592 118.73 219.234 117.983 220.036 117.489C220.842 116.989 221.726 116.739 222.686 116.739C223.419 116.739 224.03 116.864 224.518 117.114C225.013 117.358 225.411 117.665 225.712 118.034C226.018 118.398 226.251 118.756 226.411 119.108H226.521V112.545H230.143V130H226.564V127.903H226.411C226.24 128.267 225.999 128.628 225.686 128.986C225.379 129.338 224.979 129.631 224.484 129.864C223.996 130.097 223.399 130.213 222.695 130.213ZM223.845 127.324C224.43 127.324 224.925 127.165 225.328 126.847C225.737 126.523 226.05 126.071 226.266 125.491C226.487 124.912 226.598 124.233 226.598 123.455C226.598 122.676 226.49 122 226.274 121.426C226.058 120.852 225.746 120.409 225.337 120.097C224.928 119.784 224.43 119.628 223.845 119.628C223.249 119.628 222.746 119.79 222.337 120.114C221.928 120.437 221.618 120.886 221.408 121.46C221.197 122.034 221.092 122.699 221.092 123.455C221.092 124.216 221.197 124.889 221.408 125.474C221.624 126.054 221.933 126.509 222.337 126.838C222.746 127.162 223.249 127.324 223.845 127.324Z" fill="#D7C0A4"/>
<path d="M167.464 270.515L171 267L174.536 270.515C175.235 271.21 175.711 272.096 175.904 273.06C176.097 274.024 175.998 275.023 175.619 275.932C175.241 276.84 174.6 277.616 173.778 278.162C172.956 278.708 171.989 279 171 279C170.011 279 169.044 278.708 168.222 278.162C167.4 277.616 166.759 276.84 166.381 275.932C166.002 275.023 165.903 274.024 166.096 273.06C166.289 272.096 166.765 271.21 167.464 270.515Z" fill="#F9F5EF"/>
</svg>
