<svg width="279" height="281" viewBox="0 0 279 281" fill="none" xmlns="http://www.w3.org/2000/svg">
<path d="M73.6278 93.9545C68.8097 93.9545 64.5142 93.0682 60.7415 91.2955C56.9915 89.5227 54.0142 87.0795 51.8097 83.9659C49.6051 80.8523 48.4574 77.2841 48.3665 73.2614H62.6847C62.8438 75.9659 63.9801 78.1591 66.0938 79.8409C68.2074 81.5227 70.7188 82.3636 73.6278 82.3636C75.946 82.3636 77.9915 81.8523 79.7642 80.8295C81.5597 79.7841 82.9574 78.3409 83.9574 76.5C84.9801 74.6364 85.4915 72.5 85.4915 70.0909C85.4915 67.6364 84.9688 65.4773 83.9233 63.6136C82.9006 61.75 81.4801 60.2955 79.6619 59.25C77.8438 58.2045 75.7642 57.6705 73.4233 57.6477C71.3778 57.6477 69.3892 58.0682 67.4574 58.9091C65.5483 59.75 64.0597 60.8977 62.9915 62.3523L49.8665 60L53.1733 23.1818H95.8551V35.25H65.3438L63.5369 52.7386H63.946C65.1733 51.0114 67.0256 49.5795 69.5028 48.4432C71.9801 47.3068 74.7528 46.7386 77.821 46.7386C82.0256 46.7386 85.7756 47.7273 89.071 49.7045C92.3665 51.6818 94.9688 54.3977 96.8778 57.8523C98.7869 61.2841 99.7301 65.2386 99.7074 69.7159C99.7301 74.4205 98.6392 78.6023 96.4347 82.2614C94.2528 85.8977 91.196 88.7614 87.2642 90.8523C83.3551 92.9205 78.8097 93.9545 73.6278 93.9545ZM137.378 94.5341C131.514 94.5114 126.469 93.0682 122.241 90.2045C118.037 87.3409 114.798 83.1932 112.526 77.7614C110.276 72.3295 109.162 65.7955 109.185 58.1591C109.185 50.5455 110.31 44.0568 112.56 38.6932C114.832 33.3295 118.071 29.25 122.276 26.4545C126.503 23.6364 131.537 22.2273 137.378 22.2273C143.219 22.2273 148.241 23.6364 152.446 26.4545C156.673 29.2727 159.923 33.3636 162.196 38.7273C164.469 44.0682 165.594 50.5455 165.571 58.1591C165.571 65.8182 164.435 72.3636 162.162 77.7955C159.912 83.2273 156.685 87.375 152.48 90.2386C148.276 93.1023 143.241 94.5341 137.378 94.5341ZM137.378 82.2955C141.378 82.2955 144.571 80.2841 146.957 76.2614C149.344 72.2386 150.526 66.2045 150.503 58.1591C150.503 52.8636 149.957 48.4545 148.866 44.9318C147.798 41.4091 146.276 38.7614 144.298 36.9886C142.344 35.2159 140.037 34.3295 137.378 34.3295C133.401 34.3295 130.219 36.3182 127.832 40.2955C125.446 44.2727 124.241 50.2273 124.219 58.1591C124.219 63.5227 124.753 68 125.821 71.5909C126.912 75.1591 128.446 77.8409 130.423 79.6364C132.401 81.4091 134.719 82.2955 137.378 82.2955ZM203.472 94.5341C197.608 94.5114 192.563 93.0682 188.335 90.2045C184.131 87.3409 180.892 83.1932 178.619 77.7614C176.369 72.3295 175.256 65.7955 175.278 58.1591C175.278 50.5455 176.403 44.0568 178.653 38.6932C180.926 33.3295 184.165 29.25 188.369 26.4545C192.597 23.6364 197.631 22.2273 203.472 22.2273C209.313 22.2273 214.335 23.6364 218.54 26.4545C222.767 29.2727 226.017 33.3636 228.29 38.7273C230.563 44.0682 231.688 50.5455 231.665 58.1591C231.665 65.8182 230.528 72.3636 228.256 77.7955C226.006 83.2273 222.778 87.375 218.574 90.2386C214.369 93.1023 209.335 94.5341 203.472 94.5341ZM203.472 82.2955C207.472 82.2955 210.665 80.2841 213.051 76.2614C215.438 72.2386 216.619 66.2045 216.597 58.1591C216.597 52.8636 216.051 48.4545 214.96 44.9318C213.892 41.4091 212.369 38.7614 210.392 36.9886C208.438 35.2159 206.131 34.3295 203.472 34.3295C199.494 34.3295 196.313 36.3182 193.926 40.2955C191.54 44.2727 190.335 50.2273 190.312 58.1591C190.312 63.5227 190.847 68 191.915 71.5909C193.006 75.1591 194.54 77.8409 196.517 79.6364C198.494 81.4091 200.812 82.2955 203.472 82.2955Z" fill="#D7C0A4"/>
<path d="M154.339 209.644L152.866 224.863C152.808 225.455 152.536 226.006 152.101 226.412C151.666 226.818 151.097 227.051 150.503 227.067L140.159 227.357C139.564 227.373 138.984 227.172 138.527 226.79C138.07 226.409 137.768 225.874 137.677 225.286L135.357 210.176C132.942 208.802 130.87 206.898 129.299 204.606C127.727 202.315 126.697 199.696 126.286 196.948C125.875 194.2 126.094 191.394 126.926 188.743C127.758 186.092 129.182 183.665 131.089 181.644C136.97 175.427 147.192 169.96 154.053 168.041C152.696 180.144 157.476 181.526 159.715 185.168C164.951 193.679 162.695 204.272 154.339 209.644ZM145.275 212.544C145.053 212.554 144.831 212.561 144.607 212.565L140.685 212.676L142.178 222.413L148.209 222.245L149.158 212.44L145.275 212.544Z" fill="#D7C0A4"/>
<path d="M108.139 221.995C112.611 230.876 109.474 242.774 100.694 251.575L121.229 281H105.052L89.8467 259.131C78.5482 264.316 66.3011 263.136 59.5205 255.862L108.139 221.995ZM50.123 190.541C65.5858 179.77 82.6836 174.544 97.6982 174.94L105.642 209.225L48.4062 249.094L19 229.759C23.8331 215.538 34.6606 201.312 50.123 190.541Z" fill="#D7C0A4"/>
<path d="M218.892 180.142C220.421 180.129 221.938 180.418 223.355 180.991C224.772 181.564 226.063 182.411 227.153 183.483L260.352 216.123C261.443 217.194 262.312 218.47 262.909 219.878C263.506 221.285 263.821 222.796 263.834 224.325C263.847 225.854 263.558 227.37 262.985 228.788C262.412 230.205 261.565 231.496 260.493 232.586L241.227 252.175C236.511 256.971 230.278 259.985 223.59 260.704C216.903 261.423 210.172 259.803 204.545 256.119L199.675 252.936L189.936 262.842C190.994 265.47 191.261 268.349 190.706 271.127C190.15 273.904 188.797 276.459 186.81 278.478L184.33 281H149.648C149.647 280.949 149.646 280.899 149.645 280.848C149.629 278.938 149.99 277.043 150.706 275.271C151.422 273.5 152.48 271.886 153.82 270.524L166.058 258.082C168.043 256.062 170.573 254.666 173.34 254.063C176.106 253.461 178.987 253.679 181.632 254.69L191.382 244.772L188.106 239.958C184.329 234.393 182.597 227.692 183.203 220.994C183.809 214.296 186.716 208.014 191.43 203.218L210.69 183.623C211.762 182.532 213.038 181.664 214.445 181.067C215.852 180.47 217.364 180.155 218.892 180.142ZM233.973 216.704C232.556 216.629 231.159 217.075 230.048 217.958L229.505 218.445L217.267 230.893L216.789 231.444C215.93 232.571 215.511 233.973 215.612 235.386C215.713 236.8 216.327 238.128 217.338 239.122C218.348 240.115 219.686 240.705 221.101 240.782C222.516 240.859 223.911 240.417 225.023 239.539L225.565 239.051L237.803 226.603L238.288 226.052C239.151 224.925 239.571 223.521 239.471 222.105C239.371 220.689 238.757 219.359 237.745 218.364C236.732 217.369 235.391 216.779 233.973 216.704ZM221.712 204.467C220.232 204.343 218.762 204.789 217.6 205.714L217.057 206.202L204.819 218.655C203.737 219.756 203.138 221.241 203.151 222.784C203.164 224.327 203.789 225.801 204.889 226.883C205.9 227.877 207.238 228.468 208.653 228.545C210.068 228.621 211.463 228.179 212.575 227.301L213.118 226.813L225.355 214.366C226.401 213.312 227.005 211.898 227.043 210.414C227.08 208.93 226.549 207.487 225.558 206.382C224.567 205.276 223.191 204.592 221.712 204.467Z" fill="#D7C0A4"/>
<path d="M146.27 224.089C173.194 224.089 195.034 249.548 195.141 281H97.3994C97.5061 249.548 119.345 224.089 146.27 224.089Z" fill="#D7C0A4"/>
<path d="M173.149 259.521C173.149 262.895 170.414 265.63 167.04 265.63C163.666 265.63 160.931 262.895 160.931 259.521C160.931 256.147 163.666 253.412 167.04 253.412C170.414 253.412 173.149 256.147 173.149 259.521Z" fill="#F9F5EF"/>
<path d="M131.609 259.521C131.609 262.895 128.873 265.63 125.5 265.63C122.126 265.63 119.391 262.895 119.391 259.521C119.391 256.147 122.126 253.412 125.5 253.412C128.873 253.412 131.609 256.147 131.609 259.521Z" fill="#F9F5EF"/>
<path d="M44.7282 111.455V126H41.6529V111.455H44.7282ZM50.2271 119.693V126H47.2015V115.091H50.085V117.016H50.2129C50.4544 116.381 50.8592 115.879 51.4274 115.51C51.9956 115.136 52.6845 114.949 53.4941 114.949C54.2517 114.949 54.9122 115.115 55.4757 115.446C56.0391 115.777 56.4771 116.251 56.7896 116.866C57.1021 117.477 57.2583 118.206 57.2583 119.054V126H54.2328V119.594C54.2375 118.926 54.0671 118.405 53.7214 118.031C53.3758 117.652 52.8999 117.463 52.2939 117.463C51.8867 117.463 51.5268 117.551 51.2143 117.726C50.9065 117.901 50.6651 118.157 50.4899 118.493C50.3194 118.824 50.2318 119.224 50.2271 119.693ZM65.4455 115.091V117.364H58.8759V115.091H65.4455ZM60.3674 112.477H63.3929V122.648C63.3929 122.927 63.4355 123.145 63.5208 123.301C63.606 123.453 63.7244 123.559 63.8759 123.621C64.0321 123.682 64.2121 123.713 64.4157 123.713C64.5577 123.713 64.6998 123.701 64.8418 123.678C64.9838 123.649 65.0927 123.628 65.1685 123.614L65.6444 125.865C65.4928 125.912 65.2798 125.967 65.0051 126.028C64.7305 126.095 64.3967 126.135 64.0037 126.149C63.2746 126.178 62.6354 126.08 62.0861 125.858C61.5416 125.635 61.1178 125.29 60.8148 124.821C60.5118 124.352 60.3626 123.76 60.3674 123.045V112.477ZM72.2708 126.213C71.1486 126.213 70.1827 125.986 69.373 125.531C68.5681 125.072 67.9479 124.423 67.5123 123.585C67.0766 122.742 66.8588 121.746 66.8588 120.595C66.8588 119.473 67.0766 118.488 67.5123 117.641C67.9479 116.793 68.561 116.133 69.3517 115.659C70.1472 115.186 71.08 114.949 72.15 114.949C72.8697 114.949 73.5397 115.065 74.16 115.297C74.785 115.524 75.3295 115.867 75.7935 116.327C76.2623 116.786 76.6268 117.364 76.8873 118.06C77.1477 118.751 77.2779 119.561 77.2779 120.489V121.32H68.0662V119.445H74.4299C74.4299 119.009 74.3352 118.623 74.1458 118.287C73.9564 117.951 73.6936 117.688 73.3574 117.499C73.026 117.304 72.6401 117.207 72.1998 117.207C71.7405 117.207 71.3333 117.314 70.9782 117.527C70.6278 117.735 70.3532 118.017 70.1543 118.372C69.9554 118.723 69.8536 119.113 69.8489 119.544V121.327C69.8489 121.866 69.9483 122.333 70.1472 122.726C70.3508 123.119 70.6373 123.422 71.0066 123.635C71.3759 123.848 71.8139 123.955 72.3205 123.955C72.6567 123.955 72.9644 123.907 73.2438 123.812C73.5231 123.718 73.7623 123.576 73.9611 123.386C74.16 123.197 74.3115 122.965 74.4157 122.69L77.214 122.875C77.0719 123.547 76.7807 124.134 76.3404 124.636C75.9048 125.134 75.3413 125.522 74.65 125.801C73.9635 126.076 73.1704 126.213 72.2708 126.213ZM79.2523 126V115.091H82.1855V116.994H82.2992C82.498 116.317 82.8319 115.806 83.3006 115.46C83.7694 115.11 84.3091 114.935 84.9199 114.935C85.0714 114.935 85.2348 114.944 85.41 114.963C85.5852 114.982 85.7391 115.008 85.8716 115.041V117.726C85.7296 117.683 85.5331 117.645 85.2821 117.612C85.0312 117.579 84.8016 117.562 84.5932 117.562C84.1481 117.562 83.7504 117.66 83.4 117.854C83.0544 118.043 82.7798 118.308 82.5762 118.649C82.3773 118.99 82.2779 119.383 82.2779 119.828V126H79.2523ZM90.4615 119.693V126H87.4359V115.091H90.3194V117.016H90.4473C90.6887 116.381 91.0936 115.879 91.6618 115.51C92.2299 115.136 92.9189 114.949 93.7285 114.949C94.4861 114.949 95.1466 115.115 95.71 115.446C96.2735 115.777 96.7115 116.251 97.024 116.866C97.3365 117.477 97.4927 118.206 97.4927 119.054V126H94.4672V119.594C94.4719 118.926 94.3014 118.405 93.9558 118.031C93.6101 117.652 93.1343 117.463 92.5282 117.463C92.121 117.463 91.7612 117.551 91.4487 117.726C91.1409 117.901 90.8994 118.157 90.7243 118.493C90.5538 118.824 90.4662 119.224 90.4615 119.693ZM102.988 126.206C102.292 126.206 101.672 126.085 101.127 125.844C100.583 125.598 100.152 125.235 99.8347 124.757C99.5222 124.274 99.3659 123.673 99.3659 122.953C99.3659 122.347 99.4772 121.838 99.6998 121.426C99.9223 121.014 100.225 120.683 100.609 120.432C100.992 120.181 101.428 119.991 101.916 119.864C102.408 119.736 102.924 119.646 103.464 119.594C104.098 119.527 104.61 119.466 104.998 119.409C105.386 119.348 105.668 119.258 105.843 119.139C106.018 119.021 106.106 118.846 106.106 118.614V118.571C106.106 118.121 105.964 117.773 105.68 117.527C105.401 117.281 105.003 117.158 104.487 117.158C103.942 117.158 103.509 117.278 103.187 117.52C102.865 117.757 102.652 118.055 102.548 118.415L99.7495 118.188C99.8915 117.525 100.171 116.952 100.588 116.469C101.004 115.981 101.542 115.607 102.2 115.347C102.863 115.081 103.63 114.949 104.501 114.949C105.107 114.949 105.687 115.02 106.241 115.162C106.8 115.304 107.294 115.524 107.725 115.822C108.161 116.121 108.504 116.504 108.755 116.973C109.006 117.437 109.132 117.993 109.132 118.642V126H106.262V124.487H106.177C106.002 124.828 105.767 125.129 105.474 125.389C105.18 125.645 104.828 125.846 104.416 125.993C104.004 126.135 103.528 126.206 102.988 126.206ZM103.855 124.118C104.3 124.118 104.693 124.03 105.034 123.855C105.374 123.675 105.642 123.434 105.836 123.131C106.03 122.828 106.127 122.484 106.127 122.101V120.943C106.033 121.005 105.902 121.062 105.737 121.114C105.576 121.161 105.393 121.206 105.19 121.249C104.986 121.286 104.783 121.322 104.579 121.355C104.375 121.384 104.191 121.41 104.025 121.433C103.67 121.485 103.36 121.568 103.095 121.682C102.829 121.795 102.624 121.949 102.477 122.143C102.33 122.333 102.257 122.57 102.257 122.854C102.257 123.266 102.406 123.58 102.704 123.798C103.007 124.011 103.391 124.118 103.855 124.118ZM114.504 111.455V126H111.479V111.455H114.504ZM129.504 115.638C129.448 115.065 129.204 114.62 128.773 114.303C128.342 113.985 127.757 113.827 127.019 113.827C126.517 113.827 126.093 113.898 125.747 114.04C125.402 114.177 125.137 114.369 124.952 114.615C124.772 114.861 124.682 115.141 124.682 115.453C124.673 115.714 124.727 115.941 124.845 116.135C124.968 116.329 125.137 116.497 125.35 116.639C125.563 116.777 125.809 116.897 126.088 117.001C126.368 117.101 126.666 117.186 126.983 117.257L128.29 117.57C128.924 117.712 129.507 117.901 130.037 118.138C130.567 118.375 131.027 118.666 131.415 119.011C131.803 119.357 132.104 119.764 132.317 120.233C132.535 120.702 132.646 121.239 132.651 121.845C132.646 122.735 132.419 123.507 131.969 124.161C131.524 124.809 130.88 125.313 130.037 125.673C129.199 126.028 128.188 126.206 127.004 126.206C125.83 126.206 124.807 126.026 123.936 125.666C123.07 125.306 122.393 124.774 121.905 124.068C121.422 123.358 121.169 122.48 121.145 121.433H124.121C124.154 121.921 124.294 122.328 124.54 122.655C124.791 122.977 125.125 123.221 125.541 123.386C125.963 123.547 126.439 123.628 126.969 123.628C127.49 123.628 127.942 123.552 128.325 123.401C128.714 123.249 129.014 123.038 129.227 122.768C129.441 122.499 129.547 122.188 129.547 121.838C129.547 121.511 129.45 121.237 129.256 121.014C129.066 120.792 128.787 120.602 128.418 120.446C128.053 120.29 127.606 120.148 127.075 120.02L125.492 119.622C124.265 119.324 123.297 118.857 122.587 118.223C121.877 117.589 121.524 116.734 121.529 115.659C121.524 114.778 121.758 114.009 122.232 113.351C122.71 112.693 123.366 112.179 124.199 111.81C125.032 111.44 125.979 111.256 127.04 111.256C128.119 111.256 129.062 111.44 129.867 111.81C130.676 112.179 131.306 112.693 131.756 113.351C132.206 114.009 132.438 114.771 132.452 115.638H129.504ZM139.634 126.213C138.512 126.213 137.546 125.986 136.736 125.531C135.931 125.072 135.311 124.423 134.876 123.585C134.44 122.742 134.222 121.746 134.222 120.595C134.222 119.473 134.44 118.488 134.876 117.641C135.311 116.793 135.924 116.133 136.715 115.659C137.51 115.186 138.443 114.949 139.513 114.949C140.233 114.949 140.903 115.065 141.523 115.297C142.148 115.524 142.693 115.867 143.157 116.327C143.626 116.786 143.99 117.364 144.251 118.06C144.511 118.751 144.641 119.561 144.641 120.489V121.32H135.43V119.445H141.793C141.793 119.009 141.698 118.623 141.509 118.287C141.32 117.951 141.057 117.688 140.721 117.499C140.389 117.304 140.003 117.207 139.563 117.207C139.104 117.207 138.697 117.314 138.341 117.527C137.991 117.735 137.716 118.017 137.518 118.372C137.319 118.723 137.217 119.113 137.212 119.544V121.327C137.212 121.866 137.312 122.333 137.51 122.726C137.714 123.119 138.001 123.422 138.37 123.635C138.739 123.848 139.177 123.955 139.684 123.955C140.02 123.955 140.328 123.907 140.607 123.812C140.886 123.718 141.126 123.576 141.324 123.386C141.523 123.197 141.675 122.965 141.779 122.69L144.577 122.875C144.435 123.547 144.144 124.134 143.704 124.636C143.268 125.134 142.705 125.522 142.013 125.801C141.327 126.076 140.534 126.213 139.634 126.213ZM146.616 126V115.091H149.549V116.994H149.662C149.861 116.317 150.195 115.806 150.664 115.46C151.133 115.11 151.672 114.935 152.283 114.935C152.435 114.935 152.598 114.944 152.773 114.963C152.948 114.982 153.102 115.008 153.235 115.041V117.726C153.093 117.683 152.896 117.645 152.645 117.612C152.394 117.579 152.165 117.562 151.956 117.562C151.511 117.562 151.114 117.66 150.763 117.854C150.418 118.043 150.143 118.308 149.939 118.649C149.741 118.99 149.641 119.383 149.641 119.828V126H146.616ZM165.302 115.091L161.488 126H158.079L154.265 115.091H157.461L159.726 122.896H159.84L162.099 115.091H165.302ZM171.47 126.213C170.348 126.213 169.382 125.986 168.572 125.531C167.767 125.072 167.147 124.423 166.711 123.585C166.276 122.742 166.058 121.746 166.058 120.595C166.058 119.473 166.276 118.488 166.711 117.641C167.147 116.793 167.76 116.133 168.551 115.659C169.346 115.186 170.279 114.949 171.349 114.949C172.069 114.949 172.739 115.065 173.359 115.297C173.984 115.524 174.529 115.867 174.993 116.327C175.461 116.786 175.826 117.364 176.086 118.06C176.347 118.751 176.477 119.561 176.477 120.489V121.32H167.265V119.445H173.629C173.629 119.009 173.534 118.623 173.345 118.287C173.156 117.951 172.893 117.688 172.557 117.499C172.225 117.304 171.839 117.207 171.399 117.207C170.94 117.207 170.532 117.314 170.177 117.527C169.827 117.735 169.552 118.017 169.354 118.372C169.155 118.723 169.053 119.113 169.048 119.544V121.327C169.048 121.866 169.148 122.333 169.346 122.726C169.55 123.119 169.836 123.422 170.206 123.635C170.575 123.848 171.013 123.955 171.52 123.955C171.856 123.955 172.164 123.907 172.443 123.812C172.722 123.718 172.961 123.576 173.16 123.386C173.359 123.197 173.511 122.965 173.615 122.69L176.413 122.875C176.271 123.547 175.98 124.134 175.54 124.636C175.104 125.134 174.541 125.522 173.849 125.801C173.163 126.076 172.37 126.213 171.47 126.213ZM178.452 126V115.091H181.385V116.994H181.498C181.697 116.317 182.031 115.806 182.5 115.46C182.969 115.11 183.508 114.935 184.119 114.935C184.271 114.935 184.434 114.944 184.609 114.963C184.784 114.982 184.938 115.008 185.071 115.041V117.726C184.929 117.683 184.732 117.645 184.481 117.612C184.23 117.579 184.001 117.562 183.792 117.562C183.347 117.562 182.95 117.66 182.599 117.854C182.254 118.043 181.979 118.308 181.775 118.649C181.577 118.99 181.477 119.383 181.477 119.828V126H178.452ZM191.321 126V111.455H201.122V113.99H194.396V117.456H200.618V119.991H194.396V123.464H201.15V126H191.321ZM203.51 126V115.091H206.443V116.994H206.557C206.756 116.317 207.09 115.806 207.558 115.46C208.027 115.11 208.567 114.935 209.178 114.935C209.329 114.935 209.493 114.944 209.668 114.963C209.843 114.982 209.997 115.008 210.129 115.041V117.726C209.987 117.683 209.791 117.645 209.54 117.612C209.289 117.579 209.059 117.562 208.851 117.562C208.406 117.562 208.008 117.66 207.658 117.854C207.312 118.043 207.038 118.308 206.834 118.649C206.635 118.99 206.536 119.383 206.536 119.828V126H203.51ZM211.694 126V115.091H214.627V116.994H214.741C214.939 116.317 215.273 115.806 215.742 115.46C216.211 115.11 216.751 114.935 217.361 114.935C217.513 114.935 217.676 114.944 217.851 114.963C218.027 114.982 218.18 115.008 218.313 115.041V117.726C218.171 117.683 217.974 117.645 217.724 117.612C217.473 117.579 217.243 117.562 217.035 117.562C216.59 117.562 216.192 117.66 215.841 117.854C215.496 118.043 215.221 118.308 215.018 118.649C214.819 118.99 214.719 119.383 214.719 119.828V126H211.694ZM224.298 126.213C223.195 126.213 222.241 125.979 221.436 125.51C220.636 125.036 220.018 124.378 219.583 123.536C219.147 122.688 218.929 121.705 218.929 120.588C218.929 119.461 219.147 118.476 219.583 117.634C220.018 116.786 220.636 116.128 221.436 115.659C222.241 115.186 223.195 114.949 224.298 114.949C225.402 114.949 226.353 115.186 227.154 115.659C227.959 116.128 228.579 116.786 229.014 117.634C229.45 118.476 229.668 119.461 229.668 120.588C229.668 121.705 229.45 122.688 229.014 123.536C228.579 124.378 227.959 125.036 227.154 125.51C226.353 125.979 225.402 126.213 224.298 126.213ZM224.313 123.869C224.815 123.869 225.234 123.727 225.57 123.443C225.906 123.154 226.159 122.761 226.33 122.264C226.505 121.767 226.593 121.201 226.593 120.567C226.593 119.932 226.505 119.366 226.33 118.869C226.159 118.372 225.906 117.979 225.57 117.69C225.234 117.402 224.815 117.257 224.313 117.257C223.806 117.257 223.38 117.402 223.034 117.69C222.693 117.979 222.435 118.372 222.26 118.869C222.09 119.366 222.004 119.932 222.004 120.567C222.004 121.201 222.09 121.767 222.26 122.264C222.435 122.761 222.693 123.154 223.034 123.443C223.38 123.727 223.806 123.869 224.313 123.869ZM231.635 126V115.091H234.568V116.994H234.682C234.881 116.317 235.215 115.806 235.683 115.46C236.152 115.11 236.692 114.935 237.303 114.935C237.454 114.935 237.618 114.944 237.793 114.963C237.968 114.982 238.122 115.008 238.254 115.041V117.726C238.112 117.683 237.916 117.645 237.665 117.612C237.414 117.579 237.184 117.562 236.976 117.562C236.531 117.562 236.133 117.66 235.783 117.854C235.437 118.043 235.163 118.308 234.959 118.649C234.76 118.99 234.661 119.383 234.661 119.828V126H231.635Z" fill="#D7C0A4"/>
<path d="M167.464 270.515L171 267L174.536 270.515C175.235 271.21 175.711 272.096 175.904 273.06C176.097 274.024 175.998 275.023 175.619 275.932C175.241 276.84 174.6 277.616 173.778 278.162C172.956 278.708 171.989 279 171 279C170.011 279 169.044 278.708 168.222 278.162C167.4 277.616 166.759 276.84 166.381 275.932C166.002 275.023 165.903 274.024 166.096 273.06C166.289 272.096 166.765 271.21 167.464 270.515Z" fill="#F9F5EF"/>
</svg>
